HIERARCHY
ROOT Hips
{
	OFFSET 0.000000 0.000000 0.000000
	CHANNELS 6 Xposition Yposition Zposition Xrotation Yrotation Zrotation
	JOINT LeftUpLeg_virtual
	{
		OFFSET 0.000000 0.000000 0.000000
		CHANNELS 3 Xrotation Yrotation Zrotation
		JOINT LeftUpLeg
		{
			OFFSET 11.394100 -6.187798 -0.413800
			CHANNELS 3 Xrotation Yrotation Zrotation
			JOINT LeftLeg
			{
				OFFSET 0.430247 -32.302673 3.732800
				CHANNELS 3 Xrotation Yrotation Zrotation
				JOINT LeftFoot
				{
					OFFSET -0.430247 -48.264931 -6.423300
					CHANNELS 3 Xrotation Yrotation Zrotation
					JOINT LeftToeBase
					{
						OFFSET 4.230900 -16.068199 23.438400
						CHANNELS 3 Xrotation Yrotation Zrotation
						JOINT LeftToe_End
						{
							OFFSET 4.510700 0.695400 19.974600
							CHANNELS 3 Xrotation Yrotation Zrotation
							End Site
							{
								OFFSET 0 0 0
							}
						}
					}
				}
			}
		}
	}
	JOINT RightUpLeg_virtual
	{
		OFFSET 0.000000 0.000000 0.000000
		CHANNELS 3 Xrotation Yrotation Zrotation
		JOINT RightUpLeg
		{
			OFFSET -11.333700 -6.187798 -0.413800
			CHANNELS 3 Xrotation Yrotation Zrotation
			JOINT RightLeg
			{
				OFFSET -0.430392 -32.302628 3.733000
				CHANNELS 3 Xrotation Yrotation Zrotation
				JOINT RightFoot
				{
					OFFSET 0.430392 -48.264973 -6.423500
					CHANNELS 3 Xrotation Yrotation Zrotation
					JOINT RightToeBase
					{
						OFFSET -4.230900 -16.068199 23.438400
						CHANNELS 3 Xrotation Yrotation Zrotation
						JOINT RightToe_End
						{
							OFFSET -4.510700 0.695400 19.974600
							CHANNELS 3 Xrotation Yrotation Zrotation
							End Site
							{
								OFFSET 0 0 0
							}
						}
					}
				}
			}
		}
	}
	JOINT Spine_virtual
	{
		OFFSET 0.000000 0.000000 0.000000
		CHANNELS 3 Xrotation Yrotation Zrotation
		JOINT Spine
		{
			OFFSET -0.002400 12.777504 0.315300
			CHANNELS 3 Xrotation Yrotation Zrotation
			JOINT Spine1
			{
				OFFSET -0.002067 5.816869 0.032633
				CHANNELS 3 Xrotation Yrotation Zrotation
				JOINT Spine1_split
				{
					OFFSET -0.002067 5.816869 0.032633
					CHANNELS 3 Xrotation Yrotation Zrotation
					JOINT Spine2
					{
						OFFSET -0.002067 5.816869 0.032633
						CHANNELS 3 Xrotation Yrotation Zrotation
						JOINT Neck_virtual
						{
							OFFSET 0.000000 0.000000 0.000000
							CHANNELS 3 Xrotation Yrotation Zrotation
							JOINT Neck
							{
								OFFSET -0.003700 21.199493 -0.826900
								CHANNELS 3 Xrotation Yrotation Zrotation
								JOINT Head
								{
									OFFSET 0.000000 20.442200 4.834800
									CHANNELS 3 Xrotation Yrotation Zrotation
									JOINT HeadTop_End
									{
										OFFSET 0.000000 34.668396 4.968400
										CHANNELS 3 Xrotation Yrotation Zrotation
										End Site
										{
											OFFSET 0 0 0
										}
									}
								}
							}
						}
						JOINT LeftShoulder_virtual
						{
							OFFSET 0.000000 0.000000 0.000000
							CHANNELS 3 Xrotation Yrotation Zrotation
							JOINT LeftShoulder
							{
								OFFSET 3.288150 8.794197 -1.372250
								CHANNELS 3 Xrotation Yrotation Zrotation
								JOINT LeftShoulder_split
								{
									OFFSET 3.288150 8.794197 -1.372250
									CHANNELS 3 Xrotation Yrotation Zrotation
									JOINT LeftArm
									{
										OFFSET 11.953299 -2.279007 -0.146200
										CHANNELS 3 Xrotation Yrotation Zrotation
										JOINT LeftForeArm
										{
											OFFSET 18.448900 0.000000 0.000000
											CHANNELS 3 Xrotation Yrotation Zrotation
											JOINT LeftHand
											{
												OFFSET 29.527798 0.000000 0.000000
												CHANNELS 3 Xrotation Yrotation Zrotation
												End Site
												{
													OFFSET 0 0 0
												}
											}
										}
									}
								}
							}
						}
						JOINT RightShoulder_virtual
						{
							OFFSET 0.000000 0.000000 0.000000
							CHANNELS 3 Xrotation Yrotation Zrotation
							JOINT RightShoulder
							{
								OFFSET -3.249400 8.794197 -1.372250
								CHANNELS 3 Xrotation Yrotation Zrotation
								JOINT RightShoulder_split
								{
									OFFSET -3.249400 8.794197 -1.372250
									CHANNELS 3 Xrotation Yrotation Zrotation
									JOINT RightArm
									{
										OFFSET -11.953299 -2.279007 -0.146200
										CHANNELS 3 Xrotation Yrotation Zrotation
										JOINT RightForeArm
										{
											OFFSET -18.448900 0.000000 0.000000
											CHANNELS 3 Xrotation Yrotation Zrotation
											JOINT RightHand
											{
												OFFSET -29.527802 0.000000 0.000000
												CHANNELS 3 Xrotation Yrotation Zrotation
												End Site
												{
													OFFSET 0 0 0
												}
											}
										}
									}
								}
							}
						}
					}
				}
			}
		}
	}
}
MOTION
Frames: 4
Frame Time: 0.03333333
3.113450 101.416107 -10.658295 0.000000 0.000000 0.000000 4.888588 7.199796 1.204456 -19.442731 8.712334 9.290466 17.364030 -1.610810 2.001319 -1.941900 15.041963 -10.444103 7.383420 -3.795054 3.568430 0.000000 0.000000 0.000000 5.993659 7.216900 1.143172 -13.797553 -5.034381 -3.421045 15.734043 10.951778 -5.438438 -8.149477 -17.555862 17.383245 5.094125 9.670586 -15.699478 0.000000 0.000000 0.000000 4.984360 12.519131 -0.235638 3.412476 -1.543891 2.540118 1.510464 -1.583275 0.255331 0.116347 -0.015052 -0.028039 0.000000 0.000000 0.000000 2.739953 0.942823 -0.217023 0.108066 9.823251 2.032094 -2.453795 -10.489089 -0.284341 0.000000 0.000000 0.000000 1.603410 -0.734143 -0.517769 1.731328 9.458224 -13.526823 0.217813 -2.791715 -0.395684 8.276237 1.096853 -52.460429 7.967399 -30.630332 1.960433 0.000000 0.000000 0.000000 3.133037 -0.035762 0.022852 -2.019640 -11.201457 12.498959 1.366408 -0.928530 1.452778 6.549415 14.786989 59.318479 -2.066820 27.754943 2.684806 0.000000 0.000000 0.000000 
3.627001 101.239365 -10.713352 0.000000 0.000000 0.000000 4.836863 6.860690 1.233434 -19.487155 8.862139 9.136343 17.324295 -1.714888 1.850786 -2.727591 14.486249 -10.546127 7.440150 -3.744178 3.676483 0.000000 0.000000 0.000000 5.823325 7.310637 1.175693 -14.027825 -5.147671 -3.787688 15.712247 10.718926 -5.337147 -8.213852 -17.640202 16.995350 5.532828 9.654627 -15.547618 0.000000 0.000000 0.000000 4.885849 12.457938 -0.239733 3.451070 -1.540717 2.547079 1.445149 -1.604023 0.228420 0.135558 -0.037937 -0.016061 0.000000 0.000000 0.000000 2.707639 0.922445 -0.254049 0.164665 9.904692 1.981023 -2.443676 -10.309255 -0.380845 0.000000 0.000000 0.000000 1.641841 -0.770609 -0.546187 1.689610 9.207627 -13.483817 0.257825 -2.879252 -0.315428 7.942635 0.546702 -52.558032 7.916773 -30.915055 2.003266 0.000000 0.000000 0.000000 3.136876 -0.062087 -0.013725 -2.004164 -11.071696 12.570278 1.550388 -0.845104 1.348239 6.450022 14.698767 59.275312 -2.050586 27.880725 2.689523 0.000000 0.000000 0.000000 
4.453596 100.907501 -10.769829 0.000000 0.000000 0.000000 4.768741 6.775669 1.185251 -20.037427 8.874378 9.099746 18.153663 -2.297052 1.635724 -3.412957 13.022990 -11.058469 7.601671 -3.659287 3.979234 0.000000 0.000000 0.000000 5.664213 7.562151 1.110828 -14.455149 -5.287290 -4.410050 15.902796 10.442820 -5.195564 -7.923508 -17.646854 16.797049 5.804856 9.934798 -15.927771 0.000000 0.000000 0.000000 4.842686 12.447321 -0.249856 3.601883 -1.447862 2.631930 1.372532 -1.654732 0.189759 0.148768 -0.057717 -0.002720 0.000000 0.000000 0.000000 2.640333 0.873792 -0.306580 0.253079 10.028372 1.929626 -2.554043 -9.901428 -0.640737 0.000000 0.000000 0.000000 1.628027 -0.831585 -0.590937 1.631447 8.827721 -13.475486 0.335040 -2.863872 -0.282087 7.328152 -0.535954 -52.760452 7.854053 -30.726091 2.001847 0.000000 0.000000 0.000000 3.114859 -0.118703 -0.051940 -1.985489 -10.865066 12.871764 1.574499 -0.887625 1.118626 6.275104 14.532771 59.005526 -1.944631 27.658282 2.596044 0.000000 0.000000 0.000000 
5.471366 100.519028 -10.796661 0.000000 0.000000 0.000000 4.740246 7.033199 1.093773 -20.950929 8.610465 9.173388 19.562507 -3.115046 1.435556 -3.762727 10.941838 -11.692696 7.408428 -3.576416 4.485082 0.000000 0.000000 0.000000 5.619999 7.845337 0.972348 -14.986038 -5.444529 -5.220327 16.120042 10.220819 -5.025428 -7.286342 -17.531327 16.858450 5.965184 10.448377 -16.807931 0.000000 0.000000 0.000000 4.878050 12.453145 -0.282657 3.832913 -1.268489 2.781893 1.300841 -1.721353 0.145608 0.148957 -0.076356 -0.003624 0.000000 0.000000 0.000000 2.543915 0.803821 -0.360071 0.354711 10.169435 1.888593 -2.752076 -9.306504 -1.038524 0.000000 0.000000 0.000000 1.559036 -0.909623 -0.642683 1.563388 8.362080 -13.496893 0.348830 -2.671346 -0.278427 6.570631 -1.985668 -53.067059 7.775232 -30.082267 1.948167 0.000000 0.000000 0.000000 3.074437 -0.197709 -0.088706 -1.978487 -10.582280 13.338252 1.468988 -0.933499 0.827938 6.068811 14.337617 58.538307 -1.763687 27.210960 2.421339 0.000000 0.000000 0.000000 
